<?xml version="1.0" encoding="UTF-8"?>
<svg width="1055px" height="1282px" viewBox="0 0 1055 1282" version="1.1" xmlns="http://www.w3.org/2000/svg" xmlns:xlink="http://www.w3.org/1999/xlink">
    <!-- Generator: Sketch 57.1 (83088) - https://sketch.com -->
    <title>internal border</title>
    <desc>Created with Sketch.</desc>
    <g id="Frame" stroke="none" stroke-width="1" fill="none" fill-rule="evenodd">
        <g id="Artboard" transform="translate(-249.000000, -529.000000)" stroke="#979797">
            <path d="M623.507968,548.598596 L643.682451,564.914386 L674.897414,564.914386 L674.897414,548.598596 L710.736968,532.356932 C813.803999,532.356932 867.631279,532.356932 872.218808,532.356932 C876.806337,532.356932 882.400067,535.087212 889,540.547771 L889,564.914386 L913.061815,564.914386 L935.695273,554.946358 L973.86255,532.356932 L1005.7336,532.356932 L1033.74558,548.598596 L1033.74558,564.914386 L1016.68224,586.366962 L1055.4983,586.366962 L1083.91366,576.957925 L1101.23247,564.914386 L1120.75312,576.957925 L1130.62941,593.285075 L1163.993,613.057836 L1187.50047,632.423846 L1187.50047,643.372483 L1172.90789,650.327573 L1193.62861,665.000831 L1212.8568,684.894608 L1229.73525,719.343987 L1240.73095,745.144045 L1240.73095,776.124283 L1218.30255,793.0229 L1212.8568,808.630674 L1258.19095,819.253238 L1282.64301,828.578236 L1298.12641,858.849183 L1298.12641,881.886029 L1288.6804,890.911847 L1274.76013,881.886029 L1258.19095,873.932552 L1253.76712,881.886029 L1258.19095,912.214122 L1303.03766,979 L1303.03766,1349.84024 L1282.64301,1331.18352 L1274.76013,1331.18352 L1274.76013,1339.95136 L1274.76013,1360.12834 L1293.12066,1388.18343 L1296.00699,1401.5096 L1291.26553,1409.16999 L1280.25338,1427.15419 L1274.76013,1437.5497 L1278.41129,1449.96329 L1280.25338,1476.46049 L1282.64301,1484.74535 L1280.25338,1493.56601 L1274.76013,1503.57042 L1261.07371,1512.09645 L1253.76712,1515.45341 L1246.8793,1524.01726 L1246.8793,1542.19179 L1248.97561,1550.89252 L1244.49879,1555.13077 L1225.65156,1565.35419 L1218.30255,1579.18227 L1215.06962,1602.47764 L1208.46912,1611.69202 L1200.25075,1617.10227 L1177.78712,1622.43039 L1170.85548,1629.2421 L1167.68755,1640.14473 L1160.65683,1668.45404 L1149.44392,1688.82787 L1142.25285,1688.82787 L1122.88806,1684.67697 L1101.23247,1684.67697 L1075.1579,1693.17433 L1065.82619,1693.17433 L1045.87996,1688.82787 L1037.14795,1693.17433 L1045.87996,1713.02539 L1064.05711,1725.8001 L1068.72557,1728.7086 L1071.58192,1733.94938 L1064.05711,1752.02744 L1037.14795,1752.02744 L1027.55942,1752.02744 L1018.4728,1760.07503 C1015.57864,1766.66119 1013.56968,1769.95428 1012.44591,1769.95428 C1011.32214,1769.95428 1008.18115,1770.7908 1003.02294,1772.46385 L977.008106,1772.46385 L969.505456,1775.57312 L969.505456,1782.03804 L956.347462,1790.41676 C948.17168,1792.8781 943.063881,1793.49344 941.024064,1792.26277 C938.984247,1791.0321 930.360001,1789.06616 915.151326,1786.36494 L875.53003,1764.2168 L866.002772,1764.2168 L859.570438,1769.95428 L857.878268,1782.03804 L862.770961,1788.11447 L872.218808,1798.61949 L882.856685,1805.65933 L882.856685,1807.7061 L875.53003,1809.52212 L684.030575,1809.52212 L701.922213,1769.95428 L699.526058,1760.07503 L690.654549,1760.07503 L643.682451,1790.41676 L616.405032,1795.49979 C608.506499,1792.11111 604.557232,1790.41676 604.557232,1790.41676 C604.557232,1790.41676 602.102846,1787.62386 597.194075,1782.03804 L597.194075,1772.46385 L597.194075,1764.2168 L589.097446,1764.2168 L573.494563,1769.95428 L559.672999,1767.66242 L545.039245,1764.2168 L539.086664,1755.68294 L528.882799,1752.02744 L507.501222,1752.02744 L498.342904,1748.61963 L491.664176,1739.33355 L491.664176,1735.88533 L528.882799,1698.07354 L528.882799,1686.639 L525.935189,1681.50774 L517.857618,1681.50774 L503.406378,1686.639 L491.664176,1691.3896 L477.056495,1688.82787 L469.912355,1684.67697 L451.456226,1646.9812 L420.891561,1617.10227 L392.676119,1602.47764 L363.45424,1593.75736 L340.235785,1591.38207 L331.917034,1588.71996 L331.917034,1583.73601 L333.846473,1579.18227 L335.697692,1571.37456 L331.917034,1565.35419 L323.422286,1555.13077 L312.359298,1553.42817 L308.67772,1550.89252 L314.117956,1515.45341 L318.296235,1509.1697 L306.200737,1505.94441 C304.664377,1507.19954 303.359608,1507.8271 302.286429,1507.8271 C300.67666,1507.8271 296.098087,1510.5123 294.053503,1509.1697 C292.690447,1508.27463 289.495243,1506.90944 284.467889,1505.07412 L278.445857,1490.17804 C278.445857,1475.47134 278.445857,1468.11799 278.445857,1468.11799 C278.445857,1468.11799 279.735914,1463.37311 282.31603,1453.88335 L280.134971,1435.19772 L276.356204,1424.5476 L272.053755,1412.32136 L272.053755,1401.5096 L272.053755,1390.97351 L282.31603,1360.12834 L289.21658,1346.14945 L293.061363,1336.0592 L293.061363,1330.28282 L289.21658,1330.28282 L280.134971,1337.8321 L268.355603,1349.84024 C260.203505,1354.62494 255.853659,1357.0173 255.306067,1357.0173 C254.758475,1357.0173 252.98409,1357.40979 249.982913,1358.19479 L250.90269,1001.93509 L252.832381,993.666617 L255.306067,983.384664 L264.449883,954.367569 L268.355603,944.319845 L280.134971,924.882015 L298.808541,903.284075 L305.201278,889.519791 L304.063776,881.886029 L297.25971,878.92109 L293.061363,881.886029 L284.467889,893.737182 L271.189837,903.284075 L266.599204,904.651997 L257.680095,904.651997 L250.90269,900.867517 L250.90269,893.737182 L249.982913,881.886029 L252.832381,873.034262 L253.900059,859.862216 L252.832381,846.348665 L252.832381,844.43167 L260.160129,842.958376 L264.449883,839.927999 L266.599204,835.422424 L268.355603,831.038725 C268.355603,825.202679 268.355603,822.284655 268.355603,822.284655 C268.355603,822.284655 268.355603,819.2784 268.355603,813.265889 L272.053755,808.630674 L276.356204,807.432382 L281.201379,808.630674 L290.865069,811.112125 L307.08844,813.265889 L318.296235,815.477416 L329.74771,813.265889 L341.423611,808.630674 L341.423611,798.961418 L326.259667,786.031218 L304.063776,772.277726 L303.002702,765.43816 L306.200737,761.310815 L311.677006,754.595992 C317.67762,749.510933 320.925975,746.968403 321.42207,746.968403 C321.918165,746.968403 327.705997,742.716329 338.785567,734.212182 L365.891584,720.816598 L378.100507,711.997262 L392.676119,703.835091 L412.6744,687.111465 L430.048069,671.462599 L446.388688,653.679473 L468.206359,626.368473 L481.087198,603.189168 L488.52608,584.734127 L493.469568,570.795314 L494.52093,567.806027 L497.17553,573.663543 L509.604695,579.481385 L530.206713,586.366962 L537.105418,583.706671 L538.273259,578.4875 L530.206713,571.865495 C523.791725,566.249754 520.584232,563.441883 520.584232,563.441883 C520.584232,563.441883 519.203948,560.610041 516.443381,554.946358 L512.306599,544.696407 L513.143314,537.464541 L515.500868,531.135514 L520.584232,529.540923 L533.286029,529.540923 L577.170178,532.356932 L597.194075,532.356932 L623.507968,548.598596 Z" id="internal-border"></path>
        </g>
    </g>
</svg>