<?xml version="1.0" encoding="UTF-8"?>
<svg width="1223px" height="1808px" viewBox="0 0 1223 1808" version="1.1" xmlns="http://www.w3.org/2000/svg" xmlns:xlink="http://www.w3.org/1999/xlink">
    <!-- Generator: Sketch 57.1 (83088) - https://sketch.com -->
    <title>Combined Shape</title>
    <desc>Created with Sketch.</desc>
    <defs>
        <path d="M617.025935,0 C686.890237,0 744.389606,39.3333333 789.524042,118 L1223,118 L1223,1808 L0,1808 L0,118 L433.822009,118 C472.171485,39.3333333 533.23946,0 617.025935,0 Z M357.286029,454.540923 L344.584232,454.540923 L339.500868,456.135514 L337.143314,462.464541 L336.306599,469.696407 L340.443381,479.946358 C343.203948,485.610041 344.584232,488.441883 344.584232,488.441883 C344.584232,488.441883 347.791725,491.249754 354.206713,496.865495 L354.206713,496.865495 L362.273259,503.4875 L361.105418,508.706671 L354.206713,511.366962 L333.604695,504.481385 L321.17553,498.663543 L318.52093,492.806027 L317.469568,495.795314 L312.52608,509.734127 L305.087198,528.189168 L292.206359,551.368473 L270.388688,578.679473 L254.048069,596.462599 L236.6744,612.111465 L216.676119,628.835091 L202.100507,636.997262 L189.891584,645.816598 L162.785567,659.212182 C151.705997,667.716329 145.918165,671.968403 145.42207,671.968403 C144.925975,671.968403 141.67762,674.510933 135.677006,679.595992 L135.677006,679.595992 L130.200737,686.310815 L127.002702,690.43816 L128.063776,697.277726 L150.259667,711.031218 L165.423611,723.961418 L165.423611,733.630674 L153.74771,738.265889 L142.296235,740.477416 L131.08844,738.265889 L114.865069,736.112125 L105.201379,733.630674 L100.356204,732.432382 L96.0537548,733.630674 L92.3556034,738.265889 L92.3556034,738.265889 L92.3556034,756.038725 L90.5992036,760.422424 L88.4498832,764.927999 L84.1601291,767.958376 L76.832381,769.43167 L76.832381,771.348665 L77.9000588,784.862216 L76.832381,798.034262 L73.9829128,806.886029 L74.9026899,818.737182 L74.9026899,825.867517 L81.6800951,829.651997 L90.5992036,829.651997 L95.1898372,828.284075 L108.467889,818.737182 L117.061363,806.886029 L121.25971,803.92109 L128.063776,806.886029 L129.201278,814.519791 L122.808541,828.284075 L104.134971,849.882015 L92.3556034,869.319845 L88.4498832,879.367569 L79.3060672,908.384664 L76.832381,918.666617 L74.9026899,926.935089 L73.9829128,1283.19479 C76.9840902,1282.40979 78.7584751,1282.0173 79.3060672,1282.0173 C79.8536594,1282.0173 84.2035048,1279.62494 92.3556034,1274.84024 L92.3556034,1274.84024 L104.134971,1262.8321 L113.21658,1255.28282 L117.061363,1255.28282 L117.061363,1261.0592 L113.21658,1271.14945 L106.31603,1285.12834 L96.0537548,1315.97351 L96.0537548,1337.32136 L100.356204,1349.5476 L104.134971,1360.19772 L106.31603,1378.88335 C103.820508,1388.06197 102.531837,1392.80175 102.450017,1393.10269 L102.445857,1393.11799 L102.445857,1393.11799 L102.445857,1415.17804 L108.467889,1430.07412 C113.495243,1431.90944 116.690447,1433.27463 118.053503,1434.1697 C120.098087,1435.5123 124.67666,1432.8271 126.286429,1432.8271 C127.359608,1432.8271 128.664377,1432.19954 130.200737,1430.94441 L130.200737,1430.94441 L142.296235,1434.1697 L138.117956,1440.45341 L132.67772,1475.89252 L136.359298,1478.42817 L147.422286,1480.13077 L155.917034,1490.35419 L159.697692,1496.37456 L157.846473,1504.18227 L155.917034,1508.73601 L155.917034,1513.71996 L164.235785,1516.38207 L187.45424,1518.75736 L216.676119,1527.47764 L244.891561,1542.10227 L275.456226,1571.9812 L293.912355,1609.67697 L301.056495,1613.82787 L315.664176,1616.3896 L327.406378,1611.639 L341.857618,1606.50774 L349.935189,1606.50774 L352.882799,1611.639 L352.882799,1623.07354 L315.664176,1660.88533 L315.664176,1664.33355 L322.342904,1673.61963 L331.501222,1677.02744 L352.882799,1677.02744 L363.086664,1680.68294 L369.039245,1689.2168 L383.672999,1692.66242 L397.494563,1694.95428 L413.097446,1689.2168 L421.194075,1689.2168 L421.194075,1707.03804 C426.102846,1712.62386 428.557232,1715.41676 428.557232,1715.41676 C428.557232,1715.41676 432.506499,1717.11111 440.405032,1720.49979 L440.405032,1720.49979 L467.682451,1715.41676 L514.654549,1685.07503 L523.526058,1685.07503 L525.922213,1694.95428 L508.030575,1734.52212 L699.53003,1734.52212 L706.856685,1732.7061 L706.856685,1730.65933 L696.218808,1723.61949 L686.770961,1713.11447 L681.878268,1707.03804 L683.570438,1694.95428 L690.002772,1689.2168 L699.53003,1689.2168 L739.151326,1711.36494 C754.360001,1714.06616 762.984247,1716.0321 765.024064,1717.26277 C767.063881,1718.49344 772.17168,1717.8781 780.347462,1715.41676 L780.347462,1715.41676 L793.505456,1707.03804 L793.505456,1700.57312 L801.008106,1697.46385 L827.022945,1697.46385 C832.181153,1695.7908 835.322141,1694.95428 836.445909,1694.95428 C837.569677,1694.95428 839.57864,1691.66119 842.472799,1685.07503 L842.472799,1685.07503 L851.559415,1677.02744 L888.057106,1677.02744 L895.581919,1658.94938 L892.725567,1653.7086 L888.057106,1650.8001 L869.879963,1638.02539 L861.147946,1618.17433 L869.879963,1613.82787 L889.826193,1618.17433 L899.1579,1618.17433 L925.232474,1609.67697 L946.888056,1609.67697 L966.252847,1613.82787 L973.443919,1613.82787 L984.656829,1593.45404 L991.68755,1565.14473 L994.85548,1554.2421 L1001.78712,1547.43039 L1024.25075,1542.10227 L1032.46912,1536.69202 L1039.06962,1527.47764 L1042.30255,1504.18227 L1049.65156,1490.35419 L1068.49879,1480.13077 L1072.97561,1475.89252 L1070.8793,1467.19179 L1070.8793,1449.01726 L1077.76712,1440.45341 L1085.07371,1437.09645 L1098.76013,1428.57042 L1104.25338,1418.56601 L1106.64301,1409.74535 L1104.25338,1401.46049 L1102.41129,1374.96329 L1098.76013,1362.5497 L1104.25338,1352.15419 L1115.26553,1334.16999 L1120.00699,1326.5096 L1117.12066,1313.18343 L1098.76013,1285.12834 L1098.76013,1256.18352 L1106.64301,1256.18352 L1127.03766,1274.84024 L1127.03766,904 L1082.19095,837.214122 L1077.76712,806.886029 L1082.19095,798.932552 L1098.76013,806.886029 L1112.6804,815.911847 L1122.12641,806.886029 L1122.12641,783.849183 L1106.64301,753.578236 L1082.19095,744.253238 L1036.8568,733.630674 L1042.30255,718.0229 L1064.73095,701.124283 L1064.73095,670.144045 L1053.73525,644.343987 L1036.8568,609.894608 L1017.62861,590.000831 L996.907891,575.327573 L1011.50047,568.372483 L1011.50047,557.423846 L987.993004,538.057836 L954.629412,518.285075 L944.753117,501.957925 L925.232474,489.914386 L907.91366,501.957925 L879.498301,511.366962 L840.682241,511.366962 L857.745575,489.914386 L857.745575,473.598596 L829.733604,457.356932 L797.86255,457.356932 L759.695273,479.946358 L737.061815,489.914386 L713,489.914386 L713,465.547771 C706.400067,460.087212 700.806337,457.356932 696.218808,457.356932 L696.218808,457.356932 L534.736968,457.356932 L498.897414,473.598596 L498.897414,489.914386 L467.682451,489.914386 L447.507968,473.598596 L421.194075,457.356932 L401.170178,457.356932 L357.286029,454.540923 Z" id="path-1"></path>
    </defs>
    <g id="Frame" stroke="none" stroke-width="1" fill="none" fill-rule="evenodd">
        <g id="Artboard" transform="translate(-202.000000, -988.000000)">
            <g id="internal-border" transform="translate(202.000000, 988.000000)">
                <mask id="mask-2" fill="white">
                    <use xlink:href="#path-1"></use>
                </mask>
                <use id="Combined-Shape" fill="#FFFFFF" xlink:href="#path-1"></use>
            </g>
        </g>
    </g>
</svg>